# xmcd CD database file
#
# Track frame offsets:
#	150
#	22897
#	43297
#	63687
#	86650
#	110822
#	133592
#	152480
#	174220
#	198712
#
# Disc length: 3061 seconds
#
# Revision: 0
# Processed by: cddbd v1.5PL3 Copyright (c) Steve Scherf et al.
# Submitted via: CDex 1.51
#
DISCID=880bf30a
DTITLE=E-ZEE BAND - SWINGIN'
DYEAR=1997
DGENRE=Funk
TTITLE0=SHOW ME THE WAY
TTITLE1=BABY LOVE
TTITLE2=SWINGIN'
TTITLE3=LONELY STURDAY NIGHT
TTITLE4=SEASON
TTITLE5=IKE! IKE! RASTAMAN
TTITLE6=NEW LIFE
TTITLE7=LOVE ON MY WINGS
TTITLE8=MILLION NIGHTS
TTITLE9=CRADLE OF LOVE[ALBUM VERSION]
EXTD=YEAR: 1997
EXTT0=
EXTT1=
EXTT2=
EXTT3=
EXTT4=
EXTT5=
EXTT6=
EXTT7=
EXTT8=
EXTT9=
PLAYORDER=
